<svg width="380" height="57" viewBox="0 0 380 57" fill="none" xmlns="http://www.w3.org/2000/svg">
<path d="M32.0664 28.2123C37.308 29.9081 41.7788 33.6851 41.7788 41.933C41.7788 55.5766 28.3664 55.4995 19.7332 55.4995H0V53.9579C3.23747 53.9579 3.85413 51.7996 3.85413 48.0996V12.0249C3.85413 8.32493 3.23747 6.16661 0 6.16661V4.62496H18.1915C28.3664 4.62496 40.2372 4.62496 40.2372 16.9582C40.2372 23.3561 36.6914 26.5935 32.0664 28.2123ZM10.7916 7.70827V26.8248H18.9623C28.5206 26.8248 33.2997 25.7456 33.2997 17.2665C33.2997 8.78743 28.5206 7.70827 18.9623 7.70827H10.7916ZM20.504 52.4162C30.0622 52.4162 34.8414 49.6413 34.8414 41.1622C34.8414 32.6831 30.0622 29.9081 20.504 29.9081H10.7916V52.4162H20.504Z" fill="#F6EEE3"/>
<path d="M47.1981 36.2289C47.1981 25.8227 53.7501 16.1874 66.4688 16.1874C79.1874 16.1874 85.7394 25.8227 85.7394 36.2289C85.7394 46.635 79.1874 56.2704 66.4688 56.2704C53.7501 56.2704 47.1981 46.635 47.1981 36.2289ZM54.2126 37.7705C55.3689 47.0204 59.7626 54.112 68.55 53.0329C77.3374 51.9537 79.8812 44.0913 78.7249 34.6872C77.5687 25.4373 73.175 18.3457 64.3875 19.4248C55.6001 20.504 53.0564 28.3664 54.2126 37.7705Z" fill="#F6EEE3"/>
<path d="M113.801 16.1874C122.125 16.1874 124.361 22.4311 121.278 31.681L114.34 30.1393C117.423 22.9706 116.498 19.2707 112.259 19.2707C104.705 19.2707 99.6173 31.0643 99.6173 41.6247V48.0996C99.6173 51.7996 100.234 53.9579 103.471 53.9579V55.4995H88.8258V53.9579C92.0632 53.9579 92.6799 51.7996 92.6799 48.0996V24.3581C92.6799 20.6582 92.0632 18.4998 88.8258 18.4998V16.9582H93.4507C96.3799 16.9582 99.6173 17.2665 99.6173 20.5811V28.9831H100.388C101.93 23.1248 105.707 16.1874 113.801 16.1874Z" fill="#F6EEE3"/>
<path d="M125.636 36.2289C125.636 23.5873 133.421 16.1874 143.75 16.1874C149.994 16.1874 155.158 19.8102 157.24 25.129H158.01V7.39994C158.01 3.69997 157.394 1.54165 154.156 1.54165V0H158.781C161.71 0 164.948 0.385413 164.948 4.62496V48.0996C164.948 51.7996 165.565 53.9579 168.802 53.9579V55.4995H164.177C161.788 55.4225 158.01 55.037 158.01 50.8746V47.3288H157.24C155.158 52.6475 149.994 56.2704 143.75 56.2704C133.421 56.2704 125.636 48.8704 125.636 36.2289ZM133.344 36.2289C133.344 45.4017 136.89 53.1871 145.292 53.1871C153.694 53.1871 157.24 45.4017 157.24 36.2289C157.24 27.056 153.694 19.2707 145.292 19.2707C136.89 19.2707 133.344 27.056 133.344 36.2289Z" fill="#F6EEE3"/>
<path d="M200.684 43.0121L207.622 41.4705C208.392 48.4079 203.074 56.2704 191.974 56.2704C177.482 56.2704 171.855 48.0225 171.855 37.2309C171.855 24.1269 180.643 16.1874 192.668 16.1874C202.226 16.1874 208.084 20.7352 208.084 27.5185C208.084 39.4663 188.968 39.7747 178.793 36.5372V37.7705C178.793 47.9454 184.343 53.1871 191.203 53.1871C197.601 53.1871 201.455 50.1808 200.684 43.0121ZM192.668 19.2707C184.574 19.2707 180.257 25.2831 179.101 33.2997C194.286 37.1539 201.147 33.8393 201.147 26.6706C201.147 22.4311 198.372 19.2707 192.668 19.2707Z" fill="#F6EEE3"/>
<path d="M236.877 16.1874C245.202 16.1874 247.437 22.4311 244.354 31.681L237.416 30.1393C240.5 22.9706 239.575 19.2707 235.335 19.2707C227.781 19.2707 222.694 31.0643 222.694 41.6247V48.0996C222.694 51.7996 223.31 53.9579 226.548 53.9579V55.4995H211.902V53.9579C215.14 53.9579 215.756 51.7996 215.756 48.0996V24.3581C215.756 20.6582 215.14 18.4998 211.902 18.4998V16.9582H216.527C219.456 16.9582 222.694 17.2665 222.694 20.5811V28.9831H223.465C225.006 23.1248 228.783 16.1874 236.877 16.1874Z" fill="#F6EEE3"/>
<path d="M258.751 4.62496V48.0996C258.751 51.7996 259.368 53.9579 262.605 53.9579V55.4995H247.959V53.9579C251.197 53.9579 251.813 51.7996 251.813 48.0996V7.39994C251.813 3.69997 251.197 1.54165 247.959 1.54165V0H252.584C255.513 0 258.751 0.385413 258.751 4.62496Z" fill="#F6EEE3"/>
<path d="M294.478 43.0121L301.416 41.4705C302.186 48.4079 296.868 56.2704 285.768 56.2704C271.276 56.2704 265.649 48.0225 265.649 37.2309C265.649 24.1269 274.437 16.1874 286.462 16.1874C296.02 16.1874 301.878 20.7352 301.878 27.5185C301.878 39.4663 282.762 39.7747 272.587 36.5372V37.7705C272.587 47.9454 278.137 53.1871 284.997 53.1871C291.395 53.1871 295.249 50.1808 294.478 43.0121ZM286.462 19.2707C278.368 19.2707 274.051 25.2831 272.895 33.2997C288.08 37.1539 294.941 33.8393 294.941 26.6706C294.941 22.4311 292.166 19.2707 286.462 19.2707Z" fill="#F6EEE3"/>
<path d="M308.03 26.9019C308.03 19.1936 314.813 16.1874 323.909 16.1874C332.619 16.1874 342.1 19.579 339.017 29.5227L332.079 27.981C335.163 21.0436 328.611 19.2707 323.832 19.2707C317.357 19.2707 314.967 22.1227 314.967 24.8977C314.967 29.6768 317.973 29.9852 324.68 31.9893C334.084 34.456 341.098 36.383 341.098 44.785C341.098 53.2641 333.544 56.2704 325.219 56.2704C314.967 56.2704 304.715 52.8787 307.798 39.8517L314.736 41.3934C311.653 51.4142 318.975 53.1871 325.296 53.1871C331 53.1871 334.161 50.335 334.161 46.4038C334.161 41.2392 330.538 40.5455 324.68 38.6955C314.428 35.9976 308.03 34.533 308.03 26.9019Z" fill="#F6EEE3"/>
<path d="M346.496 26.9019C346.496 19.1936 353.279 16.1874 362.375 16.1874C371.085 16.1874 380.566 19.579 377.483 29.5227L370.546 27.981C373.629 21.0436 367.077 19.2707 362.298 19.2707C355.823 19.2707 353.433 22.1227 353.433 24.8977C353.433 29.6768 356.439 29.9852 363.146 31.9893C372.55 34.456 379.564 36.383 379.564 44.785C379.564 53.2641 372.01 56.2704 363.685 56.2704C353.433 56.2704 343.181 52.8787 346.264 39.8517L353.202 41.3934C350.119 51.4142 357.441 53.1871 363.762 53.1871C369.466 53.1871 372.627 50.335 372.627 46.4038C372.627 41.2392 369.004 40.5455 363.146 38.6955C352.894 35.9976 346.496 34.533 346.496 26.9019Z" fill="#F6EEE3"/>
</svg>
